# xmcd
#
# Track frame offsets:
#	150
#	11980
#	17978
#	26749
#	35895
#	43790
#
# Disc length: 651 seconds
#
# Revision: 1
# Processed by: cddbd v1.5.2PL0 Copyright (c) Steve Scherf et al.
# Submitted via: audiograbber 1.83.01
#
DISCID=50028906
DTITLE=Minkions - Promo '07
DYEAR=2007
DGENRE=Thrash Metal
TTITLE0=Intro and Minkions
TTITLE1=Doubtful Provideance
TTITLE2=Let's skate
TTITLE3=Alcoholic agression
TTITLE4=Cut my dick
TTITLE5=God is broke (D.R.I.)
EXTD=
EXTT0=
EXTT1=
EXTT2=
EXTT3=
EXTT4=
EXTT5=
PLAYORDER=
